<svg xmlns="http://www.w3.org/2000/svg" x="0" y="0" viewBox="0 0 128.3 51.4" xml:space="preserve">
	<path fill="currentColor" d="M104.3 36.8l.8-.5c.2.5.5.8 1.1.8.6 0 .8-.2.8-.5 0-.4-.3-.5-1.1-.7-.8-.2-1.5-.5-1.5-1.5 0-.9.8-1.5 1.6-1.5s1.4.4 1.8 1.1l-.8.5c-.2-.4-.4-.6-1-.6-.4 0-.7.2-.7.5s.2.5.9.7c.8.2 1.6.5 1.6 1.5 0 .9-.7 1.5-1.8 1.5-.8 0-1.5-.5-1.7-1.3zM109.6 35.3v1.5c0 .4.3.4.8.4v.8c-1.3.1-1.7-.2-1.7-1.2v-1.5h-.6v-.9h.6v-.7l.9-.3v1h.8v.9h-.8zM114.2 34.4V38h-.9v-.4c-.2.3-.6.5-1.1.5-.8 0-1.3-.5-1.3-1.5v-2.2h.9v2.1c0 .5.3.7.7.7.4 0 .8-.3.8-.9v-1.9h.9zM118.5 33v5h-.9v-.4c-.3.3-.6.5-1.1.5-1 0-1.7-.8-1.7-1.9 0-1.1.8-1.9 1.7-1.9.5 0 .9.2 1.1.5V33h.9zm-.9 3.2c0-.6-.4-1-1-1s-1 .4-1 1 .4 1 1 1 1-.4 1-1zM119.1 33.4c0-.3.3-.6.6-.6s.6.3.6.6-.3.6-.6.6-.6-.3-.6-.6zm.1 1h.9V38h-.9v-3.6zM120.6 36.2c0-1.1.8-1.9 1.9-1.9 1 0 1.9.8 1.9 1.9 0 1.1-.8 1.9-1.9 1.9-1 0-1.9-.8-1.9-1.9zm2.9 0c0-.6-.4-1-1-1-.5 0-1 .4-1 1s.4 1 1 1 1-.4 1-1z"/>
	<path fill="currentColor" d="M115.8 43.8v.9H113v-5h1v4h1.8zM119.8 41.2v3.5h-.9v-.4c-.3.3-.6.5-1.2.5-.9 0-1.7-.8-1.7-1.9s.8-1.9 1.7-1.9c.5 0 .9.2 1.2.5v-.4h.9zm-1 1.8c0-.6-.4-1-1-1s-1 .4-1 1 .4 1 1 1 1-.4 1-1zM124.2 43c0 1.1-.8 1.9-1.7 1.9-.5 0-.9-.2-1.1-.5v.4h-.9v-5h.9v1.8c.3-.3.6-.5 1.1-.5 1 0 1.7.8 1.7 1.9zm-.9 0c0-.6-.4-1-1-1s-1 .4-1 1 .4 1 1 1 1-.4 1-1z"/>
	<path fill="currentColor" d="M36.3 28.8c-.2.2-.6.6-1 1.1 1.1-.6 2.3-1.7 2.7-2 .9-.8 1.7-1.5 2.6-2.3-1.5.9-3 1.9-4.3 3.2z" />
	<path fill="currentColor" d="M112.5 5.2c-.4 0-1.3 1.1-1.5 1.3-1.1 1.1-2.3 2.2-3.4 3.3-1.8 1.4-3.6 2.7-5.5 4-3.4 2.5-6.8 4.9-10.2 7.3V21c.1-.3-1.4-1.9-1.5-1.8-1 .8-2.1 1.5-3.1 2.3-.2.1-.6.5-1.1.8.4-.7 1-1.3 1.6-1.8.1-.1.2-.2.4-.3L90 19c.1 0-1.1-1.8-1.3-1.7-.4.3-.9.5-1.3.8-1.7 1.1-3.6 2-5.3 3-1.8 1-3.6 2.1-5.6 2.8-.5.2-1.2.5-1.9.6 0-.2.1-.3.2-.4.2-.6.6-1.1 1-1.6.5-.6 1.1-1.2 1.7-1.7.1-.1-1.2-1.9-1.5-1.8-2.3 1.1-4.4 2.4-6.5 3.9.1-.2.2-.5.3-.7.1-.3-1.4-1.9-1.5-1.8-1.9 1.7-4.1 3.7-6.5 4.9.3-.4.7-.9 1-1.2 1-.9 2.1-1.8 3.3-2.4.4-.2.8-.4 1.3-.7 0 0-1.2-1.9-1.5-1.8-.5.2-1 .5-1.5.8-2.2 1.2-4.5 2.3-6.7 3.5-.8.4-1.6.8-2.4 1.3.5-.5 1-1.1 1.6-1.6.1-.1-1.4-1.9-1.5-1.8-.7.6-1.9 1.9-2.8 2-.5 0-1.7-1.3-2.2-1.7l-.1-.1c-2.3 1.7-4.6 3.4-7 5.1v-.1c.1-.2-1.4-1.9-1.5-1.8-.2.2-.5.4-.7.6-.2-.4-1.1-1.7-1.4-1.7-1.8.1-3.7.9-5.4 1.6-6 2.5-11.6 6.1-16.8 9.9C13.2 38.1 9 41.5 5 45c1.2-3.7 3.2-7.1 5.3-10.4 4.2-6.5 9.5-12.3 14.9-17.9 4.1-4.2 8.4-8.4 13.5-11.3.5-.3 1.2-.7 1.9-1.1-.6.9-2.9 5.6-4.8 8.8-.2.3 1 1.1.9 1.2 1.2-1.9 5.3-8.1 6.1-9.3.2-.3.7-1.5 1-1.6 0-.1 0-.1-.1-.2-.4-.7-.9-1.6-1.7-1.6-.7 0-1.7.4-2.3.7-4.3 1.8-8 5-11.4 8.1-6.3 5.7-12.1 12-17.1 18.9-2.9 4-5.6 8.2-7.3 12.8-.6 1.5-1.2 3.2-1.2 4.9 0 .3 1.4 1.9 1.5 1.8 7.4-6.6 15.2-12.8 23.7-17.9 2.1-1.2 4.2-2.4 6.5-3.4-.2.3-.4.5-.6.8-.9 1.3-.5 2 .5 3.1.2.2.3.3.5.4 1.1.6 2.2-.3 3.3-1 .6-.4 1.2-.9 1.7-1.3.3.5 1.2 1.5 1.3 1.5 2.9-2.1 5.9-4.3 8.8-6.4.5-.4 1.1-1 1.7-1.2.1 0 .2-.2.2-.2.3.1.8.6 1 .9-.1.1-.2.3-.4.4-.5.5-2.9 2.4-2.7 3.2.1.4 1 1.6 1.4 1.7.5.1 1.8-.9 2.2-1.1 1.9-1 3.8-2 5.7-2.9.3-.1.5-.3.8-.4 0 .3 0 .6.1.8.1.4.6 1 1 1.4l.3.3c.1.1.2.1.3.1 1.3.4 3.5-1.5 4.5-2.3 0 .1-.1.2-.1.3-.1.2 1.4 1.9 1.5 1.8 1.8-1.4 3.7-2.8 5.7-4 0 1.1 1.4 2.9 2.5 3 1.1.1 2.5-.6 3.5-1 1.5-.7 3-1.5 4.4-2.3v.5c.1.5 1 1.6 1.4 1.8 1 .4 2.8-1.2 3.6-1.7.3-.2.5-.4.8-.5 0 .3 1.4 1.8 1.5 1.8 2.8-2 5.6-3.9 8.4-5.9 0 .1-.1.1-.1.2-.6.7-1.9 1.8-2.1 2.8v.2l.1.1c.1.7.9 1.6 1.4 1.7.4.1 9.3-4.6 11.2-5.4-.1 0-.5-1.3-.9-1.2 0 0-7.2 2.8-7.7 3 .4-.4.8-.9 1.2-1.3 2.3-2.6 4.7-5 7.1-7.5 1.4-1.1 2.8-2.3 4-3.6.2-.2.8-.7.8-1-.3-.5-1.4-1.9-1.7-1.9zM38 27.9c-.4.3-1.6 1.4-2.7 2 .3-.4.7-.8 1-1.1 1.3-1.3 2.8-2.3 4.3-3.2-.8.7-1.7 1.5-2.6 2.3z"/>
</svg>
